<svg xmlns="http://www.w3.org/2000/svg" viewBox="0 0 1080 1080" width="1080" height="1080">
	<style>
		tspan { white-space:pre }
		.shp0 { fill: #25d366 } 
		.shp1 { fill: none;stroke: #ffffff;stroke-width: 49 } 
		.shp2 { fill: #ffffff } 
	</style>
	<path id="Shape 1" class="shp0" d="M540 1006C282.3 1006 74 797.7 74 540C74 282.3 282.3 74 540 74C797.7 74 1006 282.3 1006 540C1006 797.7 797.7 1006 540 1006Z" />
	<path id="Shape 2" class="shp1" d="M539.5 890C345.67 890 189 733.33 189 539.5C189 345.67 345.67 189 539.5 189C733.33 189 890 345.67 890 539.5C890 733.33 733.33 890 539.5 890Z" />
	<path id="Color Fill 1" fill-rule="evenodd" class="shp2" d="M728 465.52L728 546.3L351 546.3L351 465.52C351 456.26 354.3 448.34 360.89 441.74C367.48 435.15 375.4 431.86 384.66 431.86L458.71 431.86L458.71 398.2C458.71 392.59 460.68 387.82 464.6 383.89C468.53 379.96 473.3 378 478.91 378L600.09 378C605.7 378 610.47 379.96 614.4 383.89C618.32 387.82 620.29 392.59 620.29 398.2L620.29 431.86L694.34 431.86C703.6 431.86 711.52 435.15 718.11 441.74C724.7 448.34 728 456.26 728 465.52ZM728 566.5L728 667.48C728 676.74 724.7 684.66 718.11 691.26C711.52 697.85 703.6 701.14 694.34 701.14L384.66 701.14C375.4 701.14 367.48 697.85 360.89 691.26C354.3 684.66 351 676.74 351 667.48L351 566.5L492.38 566.5L492.38 600.16C492.38 603.81 493.71 606.96 496.37 609.63C499.04 612.29 502.19 613.63 505.84 613.63L573.16 613.63C576.81 613.63 579.96 612.29 582.63 609.63C585.29 606.96 586.63 603.81 586.63 600.16L586.63 566.5L728 566.5ZM566.43 566.5L566.43 593.43L512.57 593.43L512.57 566.5L566.43 566.5ZM485.64 431.86L593.36 431.86L593.36 404.93L485.64 404.93L485.64 431.86Z" />
</svg>